PathFileType	4	(X/Y/Z)	Kaydara	
DataRate	CameraRate	NumFrames	NumMarkers	Units	OrigDataRate	OrigDataStartFrame	OrigNumFrames	
240.00	240.00	4	72	mm	240.00	267	355	
Frame#	Time	Hips			RightUpLeg			RightLeg			RightFoot			RightFoot_End			LeftUpLeg			LeftLeg			LeftFoot			LeftFoot_End			Spine			Spine1			Spine2			Spine3			Neck			Head			Head_End			RightShoulder			RightArm			RightForeArm			RightHand			RightHandThumb1			RightHandThumb2			RightHandThumb3			RightHandThumb3_End			RightInHandIndex			RightHandIndex1			RightHandIndex2			RightHandIndex3			RightHandIndex3_End			RightInHandMiddle			RightHandMiddle1			RightHandMiddle2			RightHandMiddle3			RightHandMiddle3_End			RightInHandRing			RightHandRing1			RightHandRing2			RightHandRing3			RightHandRing3_End			RightInHandPinky			RightHandPinky1			RightHandPinky2			RightHandPinky3			RightHandPinky3_End			LeftShoulder			LeftArm			LeftForeArm			LeftHand			LeftHandThumb1			LeftHandThumb2			LeftHandThumb3			LeftHandThumb3_End			LeftInHandIndex			LeftHandIndex1			LeftHandIndex2			LeftHandIndex3			LeftHandIndex3_End			LeftInHandMiddle			LeftHandMiddle1			LeftHandMiddle2			LeftHandMiddle3			LeftHandMiddle3_End			LeftInHandRing			LeftHandRing1			LeftHandRing2			LeftHandRing3			LeftHandRing3_End			LeftInHandPinky			LeftHandPinky1			LeftHandPinky2			LeftHandPinky3			LeftHandPinky3_End			
		X1	Y1	Z1	X2	Y2	Z2	X3	Y3	Z3	X4	Y4	Z4	X5	Y5	Z5	X6	Y6	Z6	X7	Y7	Z7	X8	Y8	Z8	X9	Y9	Z9	X10	Y10	Z10	X11	Y11	Z11	X12	Y12	Z12	X13	Y13	Z13	X14	Y14	Z14	X15	Y15	Z15	X16	Y16	Z16	X17	Y17	Z17	X18	Y18	Z18	X19	Y19	Z19	X20	Y20	Z20	X21	Y21	Z21	X22	Y22	Z22	X23	Y23	Z23	X24	Y24	Z24	X25	Y25	Z25	X26	Y26	Z26	X27	Y27	Z27	X28	Y28	Z28	X29	Y29	Z29	X30	Y30	Z30	X31	Y31	Z31	X32	Y32	Z32	X33	Y33	Z33	X34	Y34	Z34	X35	Y35	Z35	X36	Y36	Z36	X37	Y37	Z37	X38	Y38	Z38	X39	Y39	Z39	X40	Y40	Z40	X41	Y41	Z41	X42	Y42	Z42	X43	Y43	Z43	X44	Y44	Z44	X45	Y45	Z45	X46	Y46	Z46	X47	Y47	Z47	X48	Y48	Z48	X49	Y49	Z49	X50	Y50	Z50	X51	Y51	Z51	X52	Y52	Z52	X53	Y53	Z53	X54	Y54	Z54	X55	Y55	Z55	X56	Y56	Z56	X57	Y57	Z57	X58	Y58	Z58	X59	Y59	Z59	X60	Y60	Z60	X61	Y61	Z61	X62	Y62	Z62	X63	Y63	Z63	X64	Y64	Z64	X65	Y65	Z65	X66	Y66	Z66	X67	Y67	Z67	X68	Y68	Z68	X69	Y69	Z69	X70	Y70	Z70	X71	Y71	Z71	X72	Y72	Z72	

267	1.108	6921.0129	906.651	56.2195	6931.6495979229585	863.2474176471594	-19.6857039755625	6858.697698122162	454.476346007707	-70.49702602357914	6952.0133939947555	96.49373154384	-188.3297643492604	6878.710365757751	15.914770182226425	-31.285973424478257	6916.762210828216	921.0680585872853	144.0395772597203	6866.267025037548	520.2637925882952	253.9656586216407	6776.528912436106	90.13239689443024	290.0428342726381	6657.823405314772	0.04813325683777636	170.65746432835763	6891.724085761473	1036.9903294532696	5.275391214316511	6842.054599642133	1109.3413340459651	-36.21373383932124	6784.191232857646	1179.6161398166319	-79.66930510380561	6719.8199228185	1238.1141312491418	-121.45387221628287	6650.359697894483	1300.225218759755	-165.46037910015156	6586.379257084259	1356.9418495561738	-204.3180259551547	6461.319657139709	1447.9393782468746	-241.16655721014024	6674.603308582137	1264.8888416433601	-172.36447259723246	6664.8780535029055	1211.4001318806356	-238.9613394405922	6644.781166580385	1038.805260714166	-127.30925899332755	6596.0080778128095	929.7184511717056	-107.18094455417662	6598.05236520027	939.8796518609962	-116.55335959787966	6593.493108423432	935.8002151621405	-115.18476387343728	6589.925578789962	929.9434748556052	-112.73818909508003	6586.615744082288	922.4810060281269	-109.42094762219264	6597.4063895454465	930.5632726853686	-112.79541477390981	6595.604439823286	918.2330883282242	-112.64910745532704	6591.287969584897	906.6491835714542	-108.61647514108768	6587.3829330067	901.2123879000906	-105.17968581162174	6583.3268043816315	897.9028398976251	-101.70794108714992	6596.256111268082	922.6471366238959	-108.55163049987283	6593.87723207253	906.339659604809	-106.11458318930046	6589.017346099981	892.691043129239	-101.14978553165977	6584.23419573791	885.6479135375574	-96.73258743622469	6579.761119230115	881.791459178678	-92.80220486537317	6595.51759554804	917.3773587081973	-105.58725255722052	6592.826982561475	898.2124200676793	-100.9180022113356	6588.441459451069	885.3112857590705	-96.01730687595823	6583.7482679158875	877.9839465033963	-91.45207977409149	6579.5047899608135	874.1050102441372	-87.61223877360405	6594.49668806471	911.595273083651	-101.93759754069475	6591.493439424359	890.4766322261382	-95.50601710250436	6587.759762059493	878.6615608808797	-90.70735475938677	6584.229179708485	872.5989536417875	-86.95449826126797	6580.408368724762	868.7496218843133	-83.30960385280815	6672.832005482681	1295.3737593899752	-128.5131845690687	6688.354355000857	1318.4130948257846	-31.45242197627261	6709.460559733031	1096.58437928723	-54.37150870842581	6662.38504263137	917.9571297305843	-61.397647670704735	6652.298834978885	925.2002451305948	-60.64064273095251	6646.54754683964	914.4791190577464	-62.97782056953875	6643.934970195332	903.82045764739	-64.50322088142431	6642.948330594883	892.2037225545068	-65.68744145529908	6656.237158364679	915.2478596789258	-59.837049244905415	6652.563103670176	895.6831484754624	-58.66568164121032	6650.692480385546	877.6494711736816	-59.8148258678504	6649.056824720561	868.1312849137262	-61.781610583413155	6647.384150558501	861.395296993228	-64.25427581048484	6660.185357337357	907.0358101177783	-59.693187315949544	6658.7371812875845	883.5123362741285	-58.472296507650434	6657.2296888505425	862.8083874357152	-59.7135117268389	6655.512452075589	850.8328873564228	-62.080259826442386	6653.806753459864	843.2232405947713	-64.78283696378054	6663.0699208473925	901.7533599997312	-59.60059489040238	6664.280187283088	876.1448984771692	-58.365062830885336	6663.514045345908	857.0878227236292	-59.43605414583417	6662.148543188263	844.9993740228538	-61.71320970926535	6660.682611824694	837.5898590085262	-64.25158290450022	6666.48990797738	896.0734898861274	-59.69203389379328	6669.711896659476	869.1450836516709	-58.54485374524854	6669.947729285242	852.418453960266	-59.39107014697527	6669.362577800041	842.8917271922461	-61.046525797496	6668.300449267513	835.9198571011189	-63.291939797991006
268	1.113	6921.0129	906.651	56.2195	6930.994542751857	862.9961505092531	-19.846579195549992	6858.252294225477	454.1532320028386	-70.41433626653472	6952.2985869139575	96.40022725754744	-188.61961937110289	6879.031172265231	15.790159785684104	-31.574756417263536	6917.401361920631	921.3202657655031	144.21072615046788	6866.965417062593	520.5615472395251	254.3287650195257	6776.743546532876	90.45403885089962	290.02656923370677	6658.173608466983	0.23550344586899286	170.59923494208184	6891.812226343584	1036.9947978446094	5.238009616945187	6842.082427172186	1109.3653891093925	-36.14577829293139	6784.141523247984	1179.6705575413234	-79.45136696985512	6719.674528639833	1238.2208802945597	-121.02155142605415	6650.112363245706	1300.384887021285	-164.7989017976329	6586.050858029474	1357.1598585631418	-203.44268083709613	6460.964131104835	1448.2143504126382	-240.0507917950139	6674.10994043644	1264.8335437115113	-171.7550504497307	6663.224550018844	1210.5043462702088	-237.55611985784645	6643.4229633299465	1039.352978120865	-123.8240463002507	6593.99848989056	931.2915950910487	-100.3479114127543	6596.099199314405	941.4738714349332	-109.54989631275062	6591.723332873857	937.3073640212217	-107.82180975593243	6588.2696658347695	931.4037211530399	-105.09027219059044	6585.042904784031	923.9139003143646	-101.50585884239618	6595.391790264168	932.2250613020453	-105.65606980003353	6593.604268682303	920.0102382811256	-104.8966325851911	6589.388431646749	908.4189882733114	-100.41684040718377	6585.605848033651	902.909389540365	-96.76658174502606	6581.691470877609	899.4935548057026	-93.16167586019506	6594.207644891558	924.3380979577632	-101.33850988590883	6591.82449389228	908.1589454191561	-98.26353467581775	6587.070016420157	894.5056794731772	-92.80302530727258	6582.432488647776	887.3763305284879	-88.12455530868479	6578.113487063629	883.404364206157	-84.04665758127402	6593.443826332728	919.0869891730866	-98.33751525864741	6590.724472401863	900.0561940749678	-93.06435771582179	6586.426341987639	887.1542339751661	-87.72466201068549	6581.871235084599	879.7454427078605	-82.90373405464948	6577.771498635851	875.758707979526	-78.92344628171514	6592.401275007204	913.3151814817891	-94.66452578374283	6589.354945876053	892.3293136505	-87.66399088763282	6585.684390078219	880.5180226253304	-82.5056066978895	6582.251209159761	874.3981525161462	-78.56228080433083	6578.555820226036	870.4545653641338	-74.79069428672126	6672.913634389204	1295.7188890016994	-127.96215561066141	6689.557193123035	1319.8459456274622	-31.015123955762697	6710.4857583299145	1097.4954335356767	-51.91007132560462	6661.405736210134	918.7401329628768	-56.20876118717466	6651.472475687946	926.0911529712598	-55.17191069277753	6645.906237867602	915.5048564785982	-57.09202414719704	6643.457032796117	904.9313425337189	-58.337868270160186	6642.63610496546	893.3781076040085	-59.29834887993266	6655.560410452651	916.113377993885	-54.39453474713335	6652.425201981015	896.6593535541324	-52.820209756175224	6650.866016584616	878.7236998150827	-53.62021997073165	6649.319183294954	869.2765168017645	-55.35462947282137	6647.64933756788	862.6060854302718	-57.6246248310388	6659.580675219231	907.8746810437035	-54.29104411381846	6658.697072133515	884.4447481351492	-52.69897723799667	6657.537102119969	863.8439136307045	-53.565765947834706	6655.930712170047	851.9522294268609	-55.6553041176693	6654.229900151167	844.4134155243066	-58.13765128224506	6662.503380744574	902.5703316159656	-54.237945574718225	6664.255588696087	877.0259646458229	-52.70606422878479	6663.799299550529	858.0546851172616	-53.45797419978135	6662.544409062876	846.0449175428787	-55.47159963817734	6661.08482130236	838.7009768703105	-57.80473073782714	6665.9440132177315	896.863971116154	-54.38115202745636	6669.679250973554	869.9772231864165	-52.99625740801278	6670.171675855056	853.312655184167	-53.59959487560472	6669.671303966283	843.8401063867017	-55.06893991962134	6668.617153857945	836.9244757543603	-57.136058806627574
269	1.117	6921.0129	906.651	56.2195	6930.342426598956	862.7465389778511	-20.00527085289623	6857.811778166326	453.83190216121864	-70.3319813716774	6952.5832658930985	96.30781114293677	-188.9084660619472	6879.35183969858	15.6670238608146	-31.862165794640074	6918.037695993698	921.5708708575751	144.37974539706838	6867.659472068968	520.8577788623144	254.68918459839085	6776.957144132615	90.77416555336126	290.0112180448957	6658.522053570513	0.42227222858385005	170.54206689552382	6891.899754834543	1036.9989750881991	5.20030765711374	6842.109821874575	1109.389220296522	-36.078091783328894	6784.091691835997	1179.7249018134817	-79.23361896712584	6719.529545514154	1238.3278613950558	-120.58935405941135	6649.86601847488	1300.5451445436918	-164.1374621524593	6585.72402857324	1357.378836348531	-202.56729294288846	6460.610668084932	1448.4909517271255	-238.93446049730935	6673.618046335096	1264.7799306139702	-171.1448713197259	6661.574743632514	1209.6149215912164	-236.14790837064297	6642.085311324763	1039.9130820598457	-120.34131495436765	6592.024727279665	932.9025411201588	-93.51751371885591	6594.186716260559	943.1093147700018	-102.55129282136997	6589.996157912812	938.8576455951325	-100.46605750888463	6586.657242189677	932.9085181937055	-97.45090092371646	6583.513913455283	925.3926033159353	-93.60019020236533	6593.416947441915	933.9289547627097	-98.52068436269394	6591.647210131273	921.8353173558916	-97.14939855024562	6587.533115257309	910.2394428999887	-92.22373668234931	6583.873104315719	904.6574771714019	-88.36116410452848	6580.100193406787	901.1348697916535	-84.62429172061053	6592.197544625025	926.0711391576872	-94.12854186739281	6589.812643600982	910.025978793997	-90.41645190959576	6585.164588852101	896.3710084630266	-84.46152853381076	6580.672734095571	889.1559548130783	-79.52312775185959	6576.507449655549	885.0679392831701	-75.29899635266	6591.407365504264	920.8385484970004	-91.09032208556698	6588.660642313352	901.9468899088711	-85.21344130890562	6584.450584308189	889.0466374853872	-79.43576253210225	6580.033502187571	881.5568728421151	-74.36036691271016	6576.077119430511	877.4618260715858	-70.24080865178112	6590.341773657081	915.0765556944287	-87.39330439825925	6587.252796403822	894.2278080525471	-79.82353746737249	6583.645581692399	882.4222519344919	-74.30606776734649	6580.309601449933	876.2454322203215	-70.17308573364468	6576.739200611587	872.2071140969991	-66.27579947207911	6672.995316216987	1296.0632162321244	-127.41202405796632	6690.757384587225	1321.2742050373934	-30.584931934276902	6711.528671334063	1098.4106250355767	-49.457906487985746	6660.451069447688	919.5479198198223	-51.02034457633344	6650.672192208669	927.0118055436901	-49.70775774001456	6645.294636894381	916.563496900457	-51.2121817145718	6643.011357353747	906.077222909027	-52.17911453997415	6642.358291378254	894.5891410822328	-52.916125389321266	6654.909767870749	917.0089499472571	-48.95609889262687	6652.316559802431	897.6722430722556	-46.98211940472315	6651.072022621732	879.8379610559901	-47.433995547015144	6649.616300170043	870.4627403847824	-48.93593706505912	6647.951374407938	863.8579022745988	-51.00270386082042	6659.002103550021	908.7430237967463	-48.89195267294219	6658.686152400357	885.412784966079	-46.93137619895746	6657.8771996286005	864.9186184462982	-47.42468170258267	6656.384413473396	853.1118593083272	-49.23682707687523	6654.69077463107	845.6438951367837	-51.49829846886716	6661.962864695529	903.4162082795642	-48.87755004295548	6664.259670680836	877.9409977328748	-47.05105091873284	6664.116267206083	859.0584998926286	-47.48454630219847	6662.974640685913	847.1284239130631	-49.23438268255757	6661.523543163421	839.8500452801617	-51.36162535549923	6665.424026566183	897.6824058759876	-49.07141559433246	6669.674847526285	870.8414197271202	-47.449751997809024	6670.426261145124	854.2411072937971	-47.81049431819411	6670.012587904639	844.8233783228864	-49.09341889408706	6668.96830884387	837.9639214721504	-50.981600489084826
270	1.121	6921.0129	906.651	56.2195	6929.693350549626	862.4986183823554	-20.16176405222887	6857.376194116321	453.51240663247563	-70.24997925264331	6952.867407374294	96.21649949010343	-189.19626903724435	6879.6723395668105	15.545381616724644	-32.14816702118796	6918.671115583638	921.819838555661	144.54661834281094	6868.34908373306	521.1524428434398	255.04686350762034	6777.16966884951	91.09272492332802	289.99676597846525	6658.868682286475	0.6084067972131595	170.4859531994255	6891.986652372919	1037.0028598129065	5.162292190246304	6842.136773660915	1109.412823406831	-36.010683091137174	6784.041740405368	1179.7791639059774	-79.01609305807816	6719.384990407329	1238.4350572341561	-120.15734684815803	6649.620696764831	1300.705965063104	-163.47616431662695	6585.398814722556	1357.5987465550502	-201.6920015334886	6460.2593150136345	1448.7691293801233	-237.8177454685341	6673.127704206228	1264.7280132906671	-170.5340341498356	6659.928941069645	1208.7320426842223	-234.73696573508263	6640.768414778718	1040.4855132335479	-116.86183032236033	6590.087085315782	934.5513006247825	-86.69140967667917	6592.315192663958	944.7860455652833	-95.55928290518936	6588.311799993465	940.451180293415	-93.1193309551752	6585.0884855135755	934.4580215593265	-89.82196812764465	6582.028918073969	926.9172962395702	-85.70589746032954	6591.482152159618	935.6750050337419	-91.3910239437465	6589.73353851537	923.7084280663541	-89.40934880396446	6585.7222562717125	912.1106907210742	-84.03921971707805	6582.184897809915	906.4568220608754	-79.96553316747841	6578.553124131003	902.826981091583	-76.09790874295805	6590.226109313494	927.846298943485	-86.92350233235311	6587.841967927346	911.9408405849512	-82.5752899988295	6583.301309169444	898.2871535222024	-76.12737363921633	6578.955130220827	890.9869426793366	-70.93043728857518	6574.943157469354	886.7823675733412	-66.56137554630843	6589.408518109615	922.6320646763215	-83.84745193036598	6586.635792715236	903.8845638001831	-77.36719567546797	6582.514452219618	890.9885876102499	-71.15265912508659	6578.235289660567	883.4183588584162	-65.82408148488719	6574.421828225869	879.2145112359707	-61.56644968853044	6588.3184944131635	916.8794104837973	-80.12570905542833	6585.18730142764	896.1721476973119	-71.9865814648176	6581.6436213152	884.3743059096184	-66.11074915948859	6578.404608725227	878.1408706203968	-61.788962541168274	6574.958723035347	874.0073669771092	-57.766987233438016	6673.077025974743	1296.406682652123	-126.86287245631651	6691.954702145402	1322.6976176207495	-30.16189951007899	6712.589027273613	1099.3298178535194	-47.01555695394478	6659.521036052494	920.3805055015034	-45.83353956560518	6649.897917072854	927.9622279761251	-44.24938459568538	6644.712615441831	917.6550494863542	-45.33958325916595	6642.597767239573	907.2580983588922	-46.028307469425215	6642.114668218943	895.8368159085016	-46.54216319916232	6654.285134067945	917.9346104904794	-43.52292854638164	6652.236935360471	898.7218732020715	-41.15266579096394	6651.310172589626	880.9923077324923	-41.257474564666296	6649.947822306401	871.6899935858949	-42.52690563678607	6648.289902562274	865.1507644456115	-44.389932753956	6658.44953623499	909.6408759197628	-43.49708649948778	6658.704169180277	886.4165064147602	-41.170726321345114	6658.24963589534	866.0325581404182	-41.29156281418723	6656.873177402571	854.3118153869516	-42.82619228206585	6655.18899214482	846.9146948948852	-44.86619370271549	6661.448263330944	904.29102902081	-43.520570409352686	6664.292188755871	878.8900584499414	-41.401227767860405	6664.464622593877	860.0993250256694	-41.51703501520036	6663.438880117171	848.2499339868511	-43.00287993031873	6661.998413526383	841.0370835927948	-44.923635836228634	6664.929840959864	898.528832734758	-43.76397325336134	6669.698455907812	871.7377321162443	-41.90651640851429	6670.711189426697	855.2038671866306	-42.02499171682687	6670.3861102546425	845.8415875278702	-43.12122552263914	6669.353589527429	839.0382198055697	-44.82986919776138
